# xmcd
#
# Track frame offsets: 
#        150
#        19411
#        39698
#        77294
#        97077
#        114581
#        146127
#        168310
#        188841
#        207474
#        226868
#
# Disc length: 3447 seconds
#
# Revision: 3
# Processed by: cddbd v1.5.1PL0 Copyright (c) Steve Scherf et al.
# Submitted via: ExactAudioCopy v0.95b3
#
DISCID=930d750b
DTITLE=Slow Club - This Is The Slow Club
DYEAR=2005
DGENRE=Electronic
TTITLE0=Stardust
TTITLE1=Me And Mrs Jones
TTITLE2=Estate
TTITLE3=Everytime We Say Goodbye
TTITLE4=I'll Be Seeing You
TTITLE5=The Very Thought Of You
TTITLE6=Cry Me A River
TTITLE7=Embraceable You
TTITLE8=For All We Know
TTITLE9=Love Letters
TTITLE10=How Do You Keep The Music Playing
EXTD=YEAR: 2005
EXTT0=
EXTT1=
EXTT2=
EXTT3=
EXTT4=
EXTT5=
EXTT6=
EXTT7=
EXTT8=
EXTT9=
EXTT10=
PLAYORDER=
